<?xml version="1.0" encoding="UTF-8"?>
<svg xmlns="http://www.w3.org/2000/svg" width="2500" height="1686" viewBox="0 0 2500 1686">
  <defs>
    <linearGradient id="bg" x1="0" y1="0" x2="1" y2="1">
      <stop offset="0%" stop-color="#f8fafc"/>
      <stop offset="52%" stop-color="#eef6ff"/>
      <stop offset="100%" stop-color="#f7fee7"/>
    </linearGradient>
    <pattern id="grid" width="80" height="80" patternUnits="userSpaceOnUse">
      <path d="M 80 0 L 0 0 0 80" fill="none" stroke="#cbd5e1" stroke-width="2" opacity="0.18"/>
    </pattern>
  </defs>
  <rect width="2500" height="1686" fill="url(#bg)"/>
  <rect width="2500" height="1686" fill="url(#grid)"/>
  <line x1="0" y1="843" x2="2500" y2="843" stroke="#cbd5e1" stroke-width="3"/>
  <line x1="1250" y1="0" x2="1250" y2="843" stroke="#cbd5e1" stroke-width="3"/>
  
        <g>
          <rect x="34" y="34" width="2432" height="775" rx="42" fill="#fee2e2" stroke="#dc2626" stroke-width="7"/>
          <path d="M 2030 34 L 2466 34 L 2466 470 Z" fill="#ef4444" opacity="0.18"/>
          <rect x="74" y="78" width="220" height="14" rx="7" fill="#dc2626"/>
          <circle cx="2380" cy="116" r="28" fill="#dc2626" opacity="0.18"/>
          <circle cx="2316" cy="142" r="18" fill="#dc2626" opacity="0.14"/>
          <text x="1250" y="459.5" text-anchor="middle" font-family="Hiragino Sans, AppleGothic, sans-serif" font-size="98" font-weight="900" fill="#7f1d1d">開発相談をする</text>
          <circle cx="2358" cy="727" r="52" fill="#dc2626"/>
          <text x="2358" y="743" text-anchor="middle" font-family="Hiragino Sans, AppleGothic, sans-serif" font-size="58" font-weight="900" fill="#ffffff">›</text>
        </g>
        <g>
          <rect x="34" y="877" width="2432" height="775" rx="42" fill="#ffffff" stroke="#64748b" stroke-width="7"/>
          <path d="M 2030 877 L 2466 877 L 2466 1313 Z" fill="#475569" opacity="0.18"/>
          <rect x="74" y="921" width="220" height="14" rx="7" fill="#64748b"/>
          <circle cx="2380" cy="959" r="28" fill="#64748b" opacity="0.18"/>
          <circle cx="2316" cy="985" r="18" fill="#64748b" opacity="0.14"/>
          <text x="1250" y="1302.5" text-anchor="middle" font-family="Hiragino Sans, AppleGothic, sans-serif" font-size="98" font-weight="900" fill="#0f172a">FAQを見る</text>
          <circle cx="2358" cy="1570" r="52" fill="#475569"/>
          <text x="2358" y="1586" text-anchor="middle" font-family="Hiragino Sans, AppleGothic, sans-serif" font-size="58" font-weight="900" fill="#ffffff">›</text>
        </g>
</svg>